#Comment line ignore any data following # character 
#Hierarchical Translation and Rotation (.htr) file 
[Header]	
#Header keywords are followed by a single value 
FileType HTR		#Single word string
DataType HTRS		#Translation followed by rotation and scale data
FileVersion 1		#integer
NumSegments 84		#integer
NumFrames 2		#integer
DataFrameRate 30		#integer, data frame rate in this file
EulerRotationOrder ZYX
CalibrationUnits mm
RotationUnits Degrees
GlobalAxisofGravity Y
BoneLengthAxis Y
ScaleFactor 1.00
[SegmentNames&Hierarchy]
#CHILD	PARENT
MASTER GLOBAL
root MASTER
chest root
L_mid_tent01 root
R_mid_tent01 root
spine01 root
Bip01_Neck chest
L_humerus chest
R_humerus chest
weapon_bone chest
Bip01_Head Bip01_Neck
eye_left_bone Bip01_Head
eye_right_bone Bip01_Head
L_forearm L_humerus
L_front_hand L_forearm
L_weapon_bone L_forearm
L_front_hand01_01 L_front_hand
L_front_hand02_01 L_front_hand
L_front_hand03_01 L_front_hand
L_front_hand01_02 L_front_hand01_01
L_front_hand02_02 L_front_hand02_01
L_front_hand03_02 L_front_hand03_01
R_forearm R_humerus
R_front_hand R_forearm
R_weapon_bone R_forearm
R_front_hand01_01 R_front_hand
R_front_hand02_01 R_front_hand
R_front_hand03_01 R_front_hand
R_front_hand01_02 R_front_hand01_01
R_front_hand02_02 R_front_hand02_01
R_front_hand03_02 R_front_hand03_01
null_rope01_connect L_mid_tent01
Rope1_Seg01 null_rope01_connect
Rope1_Seg02 Rope1_Seg01
Rope1_Seg03 Rope1_Seg02
Rope1_Seg04 Rope1_Seg03
Rope1_Seg05 Rope1_Seg04
Rope1_Seg06 Rope1_Seg05
Rope1_Seg07 Rope1_Seg06
Rope1_Seg09 Rope1_Seg07
L_mid_hand01 Rope1_Seg09
L_mid_hand02 Rope1_Seg09
L_mid_hand03 Rope1_Seg09
null_rope02_connect R_mid_tent01
Rope2_Seg01 null_rope02_connect
Rope2_Seg02 Rope2_Seg01
Rope2_Seg03 Rope2_Seg02
Rope2_Seg04 Rope2_Seg03
Rope2_Seg05 Rope2_Seg04
Rope2_Seg06 Rope2_Seg05
Rope2_Seg07 Rope2_Seg06
Rope2_Seg09 Rope2_Seg07
R_mid_hand01 Rope2_Seg09
R_mid_hand02 Rope2_Seg09
R_mid_hand03 Rope2_Seg09
spine02 spine01
spine03 spine02
pelvis spine03
null_rope03_connect pelvis
null_rope04_connect pelvis
Rope3_Seg01 null_rope03_connect
Rope3_Seg02 Rope3_Seg01
Rope3_Seg03 Rope3_Seg02
Rope3_Seg04 Rope3_Seg03
Rope3_Seg05 Rope3_Seg04
Rope3_Seg06 Rope3_Seg05
Rope3_Seg07 Rope3_Seg06
Rope3_Seg08 Rope3_Seg07
Rope3_Seg09 Rope3_Seg08
R_rear_hand01 Rope3_Seg09
R_rear_hand02 Rope3_Seg09
R_rear_hand03 Rope3_Seg09
Rope4_Seg01 null_rope04_connect
Rope4_Seg02 Rope4_Seg01
Rope4_Seg03 Rope4_Seg02
Rope4_Seg04 Rope4_Seg03
Rope4_Seg05 Rope4_Seg04
Rope4_Seg06 Rope4_Seg05
Rope4_Seg07 Rope4_Seg06
Rope4_Seg08 Rope4_Seg07
Rope4_Seg09 Rope4_Seg08
L_rear_hand01 Rope4_Seg09
L_rear_hand02 Rope4_Seg09
L_rear_hand03 Rope4_Seg09
[BasePosition]
#SegmentName Tx, Ty, Tz, Rx, Ry, Rz, BoneLength
MASTER 0.000000 0.000000 0.000000 -90.000000 0.000000 0.000000 10.000000 
root 0.000000 0.000000 0.000000 0.000000 0.000000 0.000000 10.000000 
chest 0.000000 0.000000 0.000000 0.000000 0.000000 0.000000 10.000000 
L_mid_tent01 0.000000 0.000000 0.000000 0.000000 0.000000 0.000000 10.000000 
R_mid_tent01 0.000000 0.000000 0.000000 0.000000 0.000000 0.000000 10.000000 
spine01 0.000000 0.000000 0.000000 0.000000 0.000000 0.000000 10.000000 
Bip01_Neck 0.000000 0.000000 0.000000 0.000000 0.000000 0.000000 10.000000 
L_humerus 0.000000 0.000000 0.000000 0.000000 0.000000 0.000000 10.000000 
R_humerus 0.000000 0.000000 0.000000 0.000000 0.000000 0.000000 10.000000 
weapon_bone 0.000000 0.000000 0.000000 0.000000 0.000000 0.000000 10.000000 
Bip01_Head 0.000000 0.000000 0.000000 0.000000 0.000000 0.000000 10.000000 
eye_left_bone 0.000000 0.000000 0.000000 0.000000 0.000000 0.000000 10.000000 
eye_right_bone 0.000000 0.000000 0.000000 0.000000 0.000000 0.000000 10.000000 
L_forearm 0.000000 0.000000 0.000000 0.000000 0.000000 0.000000 10.000000 
L_front_hand 0.000000 0.000000 0.000000 0.000000 0.000000 0.000000 10.000000 
L_weapon_bone 0.000000 0.000000 0.000000 0.000000 0.000000 0.000000 10.000000 
L_front_hand01_01 0.000000 0.000000 0.000000 0.000000 0.000000 0.000000 10.000000 
L_front_hand02_01 0.000000 0.000000 0.000000 0.000000 0.000000 0.000000 10.000000 
L_front_hand03_01 0.000000 0.000000 0.000000 0.000000 0.000000 0.000000 10.000000 
L_front_hand01_02 0.000000 0.000000 0.000000 0.000000 0.000000 0.000000 10.000000 
L_front_hand02_02 0.000000 0.000000 0.000000 0.000000 0.000000 0.000000 10.000000 
L_front_hand03_02 0.000000 0.000000 0.000000 0.000000 0.000000 0.000000 10.000000 
R_forearm 0.000000 0.000000 0.000000 0.000000 0.000000 0.000000 10.000000 
R_front_hand 0.000000 0.000000 0.000000 0.000000 0.000000 0.000000 10.000000 
R_weapon_bone 0.000000 0.000000 0.000000 0.000000 0.000000 0.000000 10.000000 
R_front_hand01_01 0.000000 0.000000 0.000000 0.000000 0.000000 0.000000 10.000000 
R_front_hand02_01 0.000000 0.000000 0.000000 0.000000 0.000000 0.000000 10.000000 
R_front_hand03_01 0.000000 0.000000 0.000000 0.000000 0.000000 0.000000 10.000000 
R_front_hand01_02 0.000000 0.000000 0.000000 0.000000 0.000000 0.000000 10.000000 
R_front_hand02_02 0.000000 0.000000 0.000000 0.000000 0.000000 0.000000 10.000000 
R_front_hand03_02 0.000000 0.000000 0.000000 0.000000 0.000000 0.000000 10.000000 
null_rope01_connect 0.000000 0.000000 0.000000 0.000000 0.000000 0.000000 10.000000 
Rope1_Seg01 0.000000 0.000000 0.000000 0.000000 0.000000 0.000000 10.000000 
Rope1_Seg02 0.000000 0.000000 0.000000 0.000000 0.000000 0.000000 10.000000 
Rope1_Seg03 0.000000 0.000000 0.000000 0.000000 0.000000 0.000000 10.000000 
Rope1_Seg04 0.000000 0.000000 0.000000 0.000000 0.000000 0.000000 10.000000 
Rope1_Seg05 0.000000 0.000000 0.000000 0.000000 0.000000 0.000000 10.000000 
Rope1_Seg06 0.000000 0.000000 0.000000 0.000000 0.000000 0.000000 10.000000 
Rope1_Seg07 0.000000 0.000000 0.000000 0.000000 0.000000 0.000000 10.000000 
Rope1_Seg09 0.000000 0.000000 0.000000 0.000000 0.000000 0.000000 10.000000 
L_mid_hand01 0.000000 0.000000 0.000000 0.000000 0.000000 0.000000 10.000000 
L_mid_hand02 0.000000 0.000000 0.000000 0.000000 0.000000 0.000000 10.000000 
L_mid_hand03 0.000000 0.000000 0.000000 0.000000 0.000000 0.000000 10.000000 
null_rope02_connect 0.000000 0.000000 0.000000 0.000000 0.000000 0.000000 10.000000 
Rope2_Seg01 0.000000 0.000000 0.000000 0.000000 0.000000 0.000000 10.000000 
Rope2_Seg02 0.000000 0.000000 0.000000 0.000000 0.000000 0.000000 10.000000 
Rope2_Seg03 0.000000 0.000000 0.000000 0.000000 0.000000 0.000000 10.000000 
Rope2_Seg04 0.000000 0.000000 0.000000 0.000000 0.000000 0.000000 10.000000 
Rope2_Seg05 0.000000 0.000000 0.000000 0.000000 0.000000 0.000000 10.000000 
Rope2_Seg06 0.000000 0.000000 0.000000 0.000000 0.000000 0.000000 10.000000 
Rope2_Seg07 0.000000 0.000000 0.000000 0.000000 0.000000 0.000000 10.000000 
Rope2_Seg09 0.000000 0.000000 0.000000 0.000000 0.000000 0.000000 10.000000 
R_mid_hand01 0.000000 0.000000 0.000000 0.000000 0.000000 0.000000 10.000000 
R_mid_hand02 0.000000 0.000000 0.000000 0.000000 0.000000 0.000000 10.000000 
R_mid_hand03 0.000000 0.000000 0.000000 0.000000 0.000000 0.000000 10.000000 
spine02 0.000000 0.000000 0.000000 0.000000 0.000000 0.000000 10.000000 
spine03 0.000000 0.000000 0.000000 0.000000 0.000000 0.000000 10.000000 
pelvis 0.000000 0.000000 0.000000 0.000000 0.000000 0.000000 10.000000 
null_rope03_connect 0.000000 0.000000 0.000000 0.000000 0.000000 0.000000 10.000000 
null_rope04_connect 0.000000 0.000000 0.000000 0.000000 0.000000 0.000000 10.000000 
Rope3_Seg01 0.000000 0.000000 0.000000 0.000000 0.000000 0.000000 10.000000 
Rope3_Seg02 0.000000 0.000000 0.000000 0.000000 0.000000 0.000000 10.000000 
Rope3_Seg03 0.000000 0.000000 0.000000 0.000000 0.000000 0.000000 10.000000 
Rope3_Seg04 0.000000 0.000000 0.000000 0.000000 0.000000 0.000000 10.000000 
Rope3_Seg05 0.000000 0.000000 0.000000 0.000000 0.000000 0.000000 10.000000 
Rope3_Seg06 0.000000 0.000000 0.000000 0.000000 0.000000 0.000000 10.000000 
Rope3_Seg07 0.000000 0.000000 0.000000 0.000000 0.000000 0.000000 10.000000 
Rope3_Seg08 0.000000 0.000000 0.000000 0.000000 0.000000 0.000000 10.000000 
Rope3_Seg09 0.000000 0.000000 0.000000 0.000000 0.000000 0.000000 10.000000 
R_rear_hand01 0.000000 0.000000 0.000000 0.000000 0.000000 0.000000 10.000000 
R_rear_hand02 0.000000 0.000000 0.000000 0.000000 0.000000 0.000000 10.000000 
R_rear_hand03 0.000000 0.000000 0.000000 0.000000 0.000000 0.000000 10.000000 
Rope4_Seg01 0.000000 0.000000 0.000000 0.000000 0.000000 0.000000 10.000000 
Rope4_Seg02 0.000000 0.000000 0.000000 0.000000 0.000000 0.000000 10.000000 
Rope4_Seg03 0.000000 0.000000 0.000000 0.000000 0.000000 0.000000 10.000000 
Rope4_Seg04 0.000000 0.000000 0.000000 0.000000 0.000000 0.000000 10.000000 
Rope4_Seg05 0.000000 0.000000 0.000000 0.000000 0.000000 0.000000 10.000000 
Rope4_Seg06 0.000000 0.000000 0.000000 0.000000 0.000000 0.000000 10.000000 
Rope4_Seg07 0.000000 0.000000 0.000000 0.000000 0.000000 0.000000 10.000000 
Rope4_Seg08 0.000000 0.000000 0.000000 0.000000 0.000000 0.000000 10.000000 
Rope4_Seg09 0.000000 0.000000 0.000000 0.000000 0.000000 0.000000 10.000000 
L_rear_hand01 0.000000 0.000000 0.000000 0.000000 0.000000 0.000000 10.000000 
L_rear_hand02 0.000000 0.000000 0.000000 0.000000 0.000000 0.000000 10.000000 
L_rear_hand03 0.000000 0.000000 0.000000 0.000000 0.000000 0.000000 10.000000 
#Beginning of Data. Separated by tabs
#Fr	Tx	Ty	Tz	Rx	Ry	Rz	SF
[MASTER]
21 0.000005 62.822109 0.000000 0.001660 0.001660 0.001660 62.822113
22 0.000005 62.822109 0.000000 0.001660 0.001660 0.001660 62.822113
[root]
21 -16.502295 -62.822117 1500.000000 -81.771820 -28.760178 -71.469574 1501.405640
22 -16.502295 -62.822117 1500.000000 -90.307877 -30.455025 -56.511398 1501.405640
[chest]
21 -84.512650 -34.090519 0.000000 9.919795 -23.507759 171.522888 91.129311
22 -84.512650 -34.090519 0.000000 9.018911 -22.754555 172.211639 91.129311
[L_mid_tent01]
21 27.299519 22.177504 -249.917999 9.207524 84.220665 83.541908 252.380875
22 27.299515 22.177509 -249.917999 3.862332 36.229351 81.347717 252.380875
[R_mid_tent01]
21 23.228794 24.509907 226.238495 -71.853737 -66.625778 -20.672739 228.744751
22 23.228794 24.509907 226.238495 151.057220 -48.729179 112.191360 228.744751
[spine01]
21 -0.361383 -0.195265 0.000000 -0.409010 0.324667 11.106234 0.410763
22 -0.361383 -0.195265 0.000000 -0.388601 0.327962 11.190747 0.410763
[Bip01_Neck]
21 165.484543 71.581718 0.000119 175.896118 1.177290 24.871183 180.302734
22 165.484543 71.581718 0.000119 175.896118 1.177290 24.871183 180.302734
[L_humerus]
21 -13.983130 -135.272980 -120.471481 69.514809 59.011906 165.354263 181.680161
22 -13.983130 -135.272980 -120.471481 66.041794 53.157589 163.007690 181.680161
[R_humerus]
21 -13.983309 -135.273102 125.287651 100.878822 -32.905262 2.553897 184.909012
22 -13.983309 -135.273102 125.287651 98.148956 -22.118153 5.799095 184.909012
[weapon_bone]
21 235.964890 -300.705902 0.000000 0.000000 -89.951546 -128.212341 382.234833
22 235.964890 -300.705902 0.000000 0.000000 -89.951546 -128.212341 382.234833
[Bip01_Head]
21 261.355835 108.959518 -2.864217 28.494978 5.844214 -62.458004 283.173553
22 261.355835 108.959526 -2.864216 28.543221 5.843948 -62.457054 283.173553
[eye_left_bone]
21 -24.626970 125.451866 -64.772606 0.000000 -90.000000 -99.840431 143.318359
22 -24.626970 125.451866 -64.772606 0.000000 -90.000000 -99.840431 143.318359
[eye_right_bone]
21 -24.626970 125.451866 64.327362 0.000000 -89.960434 80.159386 143.117676
22 -24.626970 125.451866 64.327362 0.000000 -89.960434 80.159386 143.117676
[L_forearm]
21 322.776093 0.000000 -0.000119 0.000183 0.002340 -81.045212 322.776093
22 322.776093 0.000000 -0.000119 0.000183 0.002340 -81.045212 322.776093
[L_front_hand]
21 241.149185 -0.042021 -3.300071 -178.820145 -1.933688 -22.768642 241.171753
22 241.149185 -0.042021 -3.300071 -178.765289 -1.900415 -24.431772 241.171753
[L_weapon_bone]
21 156.183838 0.000000 0.000000 0.001660 0.001660 0.001660 156.183838
22 156.183838 0.000000 0.000000 0.001660 0.001660 0.001660 156.183838
[L_front_hand01_01]
21 86.095154 20.947098 -0.655860 -0.245053 -0.548737 61.678741 88.609184
22 86.095154 20.947098 -0.655860 -0.283256 -0.527746 66.238686 88.609184
[L_front_hand02_01]
21 86.935165 -11.437475 24.513514 137.435089 -52.094742 -41.017952 91.046425
22 86.935165 -11.437475 24.513514 142.155670 -55.043068 -46.881451 91.046425
[L_front_hand03_01]
21 86.637497 -14.123976 -20.424902 -138.027817 50.349064 -43.230259 90.126129
22 86.637497 -14.123976 -20.424902 -142.484390 53.268520 -48.899921 90.126129
[L_front_hand01_02]
21 71.020905 -0.000179 0.000030 0.000072 -0.002346 -93.493416 71.020905
22 71.020905 -0.000179 0.000030 0.000160 -0.002342 -97.837593 71.020905
[L_front_hand02_02]
21 71.020927 -0.000119 0.000060 0.000072 -0.002346 -93.493416 71.020927
22 71.020927 -0.000119 0.000060 0.000160 -0.002342 -97.837593 71.020927
[L_front_hand03_02]
21 71.020905 -0.000060 0.000060 0.000072 -0.002346 -93.493416 71.020905
22 71.020905 -0.000060 0.000060 0.000160 -0.002342 -97.837593 71.020905
[R_forearm]
21 322.776428 -0.000060 0.000030 0.091322 -0.190402 -25.987707 322.776428
22 322.776428 -0.000060 0.000030 0.066936 -0.202546 -19.679937 322.776428
[R_front_hand]
21 238.847015 -0.006795 2.210259 -1.004960 1.398241 -24.466948 238.857239
22 238.847015 -0.006795 2.210259 -0.726999 1.562793 -13.737661 238.857239
[R_weapon_bone]
21 155.664093 0.002503 -0.000030 0.003358 -0.001507 -78.046379 155.664078
22 155.664093 0.002503 -0.000030 0.003046 -0.002066 -58.116371 155.664078
[R_front_hand01_01]
21 87.624611 14.231146 22.918642 -137.576263 -52.193192 41.297592 91.683487
22 87.624611 14.231146 22.918642 -142.326447 -55.135048 47.194611 91.683487
[R_front_hand02_01]
21 89.356956 14.367283 -19.491137 138.460098 50.642170 44.022160 92.579636
22 89.356956 14.367283 -19.491137 142.993713 53.533936 49.763512 92.579636
[R_front_hand03_01]
21 87.286232 -22.307278 -0.143439 0.057941 -0.448037 -62.065601 90.091743
22 87.286232 -22.307278 -0.143439 0.093541 -0.445497 -66.623528 90.091743
[R_front_hand01_02]
21 71.020905 0.000060 0.000119 0.002346 -0.000072 93.495636 71.020905
22 71.020905 0.000060 0.000119 0.002342 -0.000160 97.839737 71.020905
[R_front_hand02_02]
21 71.020844 -0.000030 -0.000119 0.002346 -0.000072 93.495636 71.020836
22 71.020844 -0.000030 -0.000119 0.002342 -0.000160 97.839737 71.020836
[R_front_hand03_02]
21 71.020905 0.000000 0.000030 0.002346 -0.000072 93.495636 71.020905
22 71.020905 0.000000 0.000030 0.002342 -0.000160 97.839737 71.020905
[null_rope01_connect]
21 328.732483 0.000000 -0.000238 -140.147156 -26.175825 -168.675995 328.732483
22 328.732483 0.000000 -0.000238 168.289551 -64.684731 -120.424690 328.732483
[Rope1_Seg01]
21 0.000000 0.000000 0.000000 114.778419 -7.395503 128.203583 0.000000
22 0.000000 0.000000 0.000000 116.913414 -14.750365 136.223495 0.000000
[Rope1_Seg02]
21 139.999863 -0.000179 0.000000 -2.213034 -1.995350 -7.152988 139.999863
22 139.999863 -0.000179 0.000000 -0.639207 -1.013241 -1.926682 139.999863
[Rope1_Seg03]
21 139.999924 0.000060 -0.000060 -1.711263 -1.585619 -7.682451 139.999924
22 139.999924 0.000060 -0.000060 -0.762722 -1.261430 -2.468174 139.999924
[Rope1_Seg04]
21 139.999924 -0.000060 -0.000119 -0.992893 1.864342 -9.547495 139.999924
22 139.999924 -0.000060 -0.000119 -0.916436 -1.627867 -3.294954 139.999924
[Rope1_Seg05]
21 139.999832 0.000119 -0.000060 -0.388943 -4.679413 -5.840650 139.999832
22 139.999832 0.000119 -0.000060 -1.082367 -2.009075 -4.808893 139.999832
[Rope1_Seg06]
21 139.999954 0.000119 -0.000060 -0.877795 -9.325260 -0.472668 139.999954
22 139.999954 0.000119 -0.000060 -1.165193 -1.129708 -10.591705 139.999954
[Rope1_Seg07]
21 139.999985 0.000060 0.000000 -0.819580 -5.020030 -0.690223 139.999985
22 139.999985 0.000060 0.000000 -0.212747 -6.460819 -10.184081 139.999985
[Rope1_Seg09]
21 121.602913 0.000119 -0.000089 -89.793175 -1.359789 0.847147 121.602913
22 121.602913 0.000119 -0.000089 -89.793175 -1.359789 0.847147 121.602913
[L_mid_hand01]
21 103.859421 1.038730 8.195221 105.318962 -20.241955 -5.944753 104.187431
22 103.859421 1.038730 8.195221 105.477005 -21.698420 -6.376463 104.187431
[L_mid_hand02]
21 105.572853 -4.139662 -10.864139 -138.730484 18.460621 -19.249092 106.211075
22 105.572853 -4.139662 -10.864139 -139.121078 19.457191 -20.452532 106.211075
[L_mid_hand03]
21 104.641464 17.579376 -3.913581 -17.677296 6.395952 23.170813 106.179977
22 104.641464 17.579376 -3.913581 -17.511391 6.856479 24.618553 106.179977
[null_rope02_connect]
21 328.732849 0.000179 -0.000119 -153.089264 -24.606859 -5.826516 328.732849
22 328.732849 0.000179 -0.000119 -125.957306 9.753646 46.567501 328.732849
[Rope2_Seg01]
21 -0.000055 0.000144 0.000068 44.624218 -35.443180 -60.533524 0.000169
22 -0.000054 0.000145 0.000064 -0.806943 -13.539210 -27.470100 0.000167
[Rope2_Seg02]
21 139.999741 -0.000060 -0.000119 -2.433238 3.702816 2.308786 139.999756
22 139.999741 -0.000060 -0.000119 -9.673922 6.308684 4.071595 139.999756
[Rope2_Seg03]
21 140.000107 0.000030 0.000000 -4.460695 5.795054 3.984221 140.000107
22 140.000107 0.000030 0.000000 -23.813211 10.801139 10.106961 140.000107
[Rope2_Seg04]
21 139.999802 0.000000 -0.000060 -10.053592 10.156843 8.356883 139.999802
22 139.999802 0.000000 -0.000060 -41.817162 14.150146 30.331484 139.999802
[Rope2_Seg05]
21 139.999985 -0.000060 0.000119 -28.820482 21.476336 27.880598 139.999985
22 139.999985 -0.000060 0.000119 -16.465292 -14.595859 30.817709 139.999985
[Rope2_Seg06]
21 139.999893 -0.000030 -0.000119 -18.603876 2.951049 29.434700 139.999893
22 139.999893 -0.000030 -0.000119 -0.554004 -9.534825 4.813540 139.999893
[Rope2_Seg07]
21 139.999893 0.000060 -0.000060 -0.989694 -0.380892 2.102136 139.999893
22 139.999893 0.000060 -0.000060 -0.298993 -4.235842 3.309202 139.999893
[Rope2_Seg09]
21 121.338966 0.000089 -0.000060 33.793236 -1.359788 -0.847141 121.338966
22 121.338966 0.000089 -0.000060 33.793236 -1.359788 -0.847141 121.338966
[R_mid_hand01]
21 104.680779 11.144459 -10.335981 -44.664528 18.071003 20.156981 105.778534
22 104.680779 11.144459 -10.335981 -44.355270 18.974577 21.124487 105.778534
[R_mid_hand02]
21 104.070427 2.443552 8.231699 74.434555 -22.435440 6.604718 104.424065
22 104.070427 2.443552 8.231699 74.289063 -23.678047 6.979429 104.424065
[R_mid_hand03]
21 106.028137 -11.221827 -5.996406 -166.228409 7.848496 -26.405991 106.788818
22 106.028137 -11.221827 -5.996406 -166.402725 8.152509 -27.673407 106.788818
[spine02]
21 129.756927 0.001550 0.000119 -0.032677 -3.941134 -7.350948 129.756927
22 129.756927 0.001550 0.000119 -0.039671 -3.941432 -7.291205 129.756927
[spine03]
21 79.115669 -0.000287 0.000000 1.907030 -2.965995 23.921795 79.115669
22 79.115669 -0.000269 0.000000 1.907030 -2.965995 23.921795 79.115669
[pelvis]
21 169.435242 0.051022 0.000000 -179.373032 3.016659 -4.321799 169.435257
22 169.435242 0.051022 0.000000 159.562881 3.046622 -4.293489 169.435257
[null_rope03_connect]
21 -1.257226 -2.466202 137.391083 -107.853172 63.160107 -21.912153 137.418976
22 -1.257226 -2.466202 137.391083 -56.224083 51.024300 20.276131 137.418976
[null_rope04_connect]
21 -1.259640 -2.480268 -137.844437 -107.853172 63.160107 -21.912153 137.872513
22 -1.259640 -2.480268 -137.844437 -56.224083 51.024300 20.276131 137.872513
[Rope3_Seg01]
21 0.000000 0.000000 0.000000 -139.157227 22.141319 -100.289230 0.000000
22 0.000000 0.000000 0.000000 -130.338608 1.816202 -96.541061 0.000000
[Rope3_Seg02]
21 139.999924 -0.000119 0.000060 -14.847034 0.965181 29.796612 139.999924
22 139.999924 -0.000119 0.000060 4.598857 16.982138 26.729979 139.999924
[Rope3_Seg03]
21 139.999924 -0.000119 0.000119 -28.714550 -7.980847 19.341211 139.999924
22 139.999924 -0.000119 0.000119 -6.894733 8.874569 19.767965 139.999924
[Rope3_Seg04]
21 139.999924 0.000119 0.000000 -24.964352 -9.037423 11.599195 139.999924
22 139.999924 0.000119 0.000000 -13.022433 6.850354 12.678529 139.999924
[Rope3_Seg05]
21 139.999924 -0.000238 0.000060 -41.588089 -16.826174 17.720867 139.999924
22 139.999924 -0.000238 0.000060 -177.839661 12.301082 19.333132 139.999924
[Rope3_Seg06]
21 139.999893 -0.000119 -0.000060 -18.847542 -18.474323 2.774088 139.999893
22 139.999893 -0.000119 -0.000060 0.690444 -10.608312 -15.045994 139.999893
[Rope3_Seg07]
21 139.999771 0.000060 -0.000119 -3.925110 -7.553552 -1.802359 139.999771
22 139.999771 0.000060 -0.000119 1.071087 -4.029648 -6.577167 139.999771
[Rope3_Seg08]
21 139.999985 -0.000060 0.000000 -1.383702 -4.050729 -1.270872 139.999985
22 139.999985 -0.000060 0.000000 0.741258 -2.276123 -3.595118 139.999985
[Rope3_Seg09]
21 90.185997 -0.000179 -0.000060 89.793228 -1.359877 -0.847183 90.185997
22 90.185997 -0.000179 -0.000060 89.793228 -1.359877 -0.847183 90.185997
[R_rear_hand01]
21 103.366196 -6.073594 -10.757982 -159.090073 13.386793 -20.616575 104.101845
22 103.366196 -6.073594 -10.757982 -159.598709 14.167145 -22.751820 104.101845
[R_rear_hand02]
21 100.509819 12.039542 -7.992327 -36.626526 13.642236 20.623676 101.543350
22 100.509819 12.039542 -7.992327 -36.171684 14.961156 22.465172 101.543350
[R_rear_hand03]
21 101.539970 5.215704 5.435467 83.895912 -21.276417 6.086511 101.819031
22 101.539970 5.215704 5.435467 83.795952 -23.482504 6.345252 101.819031
[Rope4_Seg01]
21 -0.000003 -0.000055 -0.000068 -13.181366 -12.115541 -19.326550 0.000087
22 -0.000002 -0.000054 -0.000064 -42.094383 7.414651 -9.855624 0.000083
[Rope4_Seg02]
21 139.999985 0.000060 0.000119 -30.162344 -12.679442 16.378387 139.999985
22 139.999985 0.000060 0.000119 -45.347164 -14.256031 11.395192 139.999985
[Rope4_Seg03]
21 139.999924 0.000000 -0.000238 -14.505912 -27.072733 6.556588 139.999924
22 139.999924 0.000000 -0.000238 -4.506235 -27.851978 -7.644375 139.999924
[Rope4_Seg04]
21 139.999985 0.000000 0.000119 -3.216465 -19.378391 0.656330 139.999985
22 139.999985 0.000000 0.000119 1.616756 -18.800264 -9.822862 139.999985
[Rope4_Seg05]
21 139.999802 -0.000060 -0.000119 -8.988485 -37.635406 28.994352 139.999802
22 139.999802 -0.000060 -0.000119 -4.412873 -39.317215 11.043569 139.999802
[Rope4_Seg06]
21 139.999924 0.000000 0.000060 6.326654 -24.994390 19.652855 139.999924
22 139.999924 0.000000 0.000060 10.844851 -34.402946 12.562001 139.999924
[Rope4_Seg07]
21 139.999802 0.000000 0.000000 3.802940 -6.047431 5.586000 139.999802
22 139.999802 0.000000 0.000000 6.594219 -8.347840 4.374110 139.999802
[Rope4_Seg08]
21 139.999924 0.000000 0.000119 0.506734 -2.627986 2.790334 139.999924
22 139.999924 0.000000 0.000119 2.125188 -3.516853 2.411025 139.999924
[Rope4_Seg09]
21 90.185791 0.000060 0.000060 -135.617828 2.228885 0.850567 90.185791
22 90.185791 0.000060 0.000060 -135.617828 2.228885 0.850567 90.185791
[L_rear_hand01]
21 101.696655 -8.392275 -7.654577 -37.097977 -12.101358 161.487991 102.329041
22 101.696655 -8.392275 -7.654577 -36.675037 -13.498227 159.575958 102.329041
[L_rear_hand02]
21 102.726799 -1.568258 5.773216 83.993034 18.721025 174.203247 102.900848
22 102.726799 -1.568258 5.773216 83.906593 21.035526 173.944992 102.900848
[L_rear_hand03]
21 104.552910 9.721220 -10.420293 -158.537842 -12.454078 -161.844223 105.519653
22 104.552910 9.721220 -10.420293 -159.035797 -13.298710 -159.616302 105.519653
